<?xml version="1.0" standalone="no"?>
<!DOCTYPE svg PUBLIC "-//W3C//DTD SVG 1.1//EN" "http://www.w3.org/Graphics/SVG/1.1/DTD/svg11.dtd"><svg xmlns="http://www.w3.org/2000/svg" style="background-color:#FFF" width="140" height="140"><path stroke="black" fill="none" stroke-width="1" d="M70, 20L74.09, 20.21L78.06, 20.81L81.89, 21.8L85.57, 23.14L89.07, 24.83L92.36, 26.83L95.44, 29.13L98.28, 31.72L100.87, 34.56L103.17, 37.64L105.17, 40.93L106.86, 44.43L108.2, 48.11L109.19, 51.94L109.79, 55.91L110, 60L109.79, 64.09L109.19, 68.06L108.2, 71.89L106.86, 75.57L105.17, 79.07L103.17, 82.36L100.87, 85.44L98.28, 88.28L95.44, 90.87L92.36, 93.17L89.07, 95.17L85.57, 96.86L81.89, 98.2L78.06, 99.19L74.09, 99.79L70, 100L65.91, 99.79L61.94, 99.19L58.11, 98.2L54.43, 96.86L50.93, 95.17L47.64, 93.17L44.56, 90.87L41.72, 88.28L39.13, 85.44L36.83, 82.36L34.83, 79.07L33.14, 75.57L31.8, 71.89L30.81, 68.06L30.21, 64.09L30, 60L30.21, 55.91L30.81, 51.94L31.8, 48.11L33.14, 44.43L34.83, 40.93L36.83, 37.64L39.13, 34.56L41.72, 31.72L44.56, 29.13L47.64, 26.83L50.93, 24.83L54.43, 23.14L58.11, 21.8L61.94, 20.81L65.91, 20.21L70, 20"/><path stroke="black" fill="none" stroke-width="1" d="M70, 20.5L74.04, 20.7L77.96, 21.3L81.75, 22.28L85.38, 23.6L88.83, 25.27L92.08, 27.25L95.13, 29.52L97.93, 32.07L100.48, 34.87L102.75, 37.92L104.73, 41.17L106.4, 44.62L107.72, 48.25L108.7, 52.04L109.3, 55.96L109.5, 60L109.3, 64.04L108.7, 67.96L107.72, 71.75L106.4, 75.38L104.73, 78.83L102.75, 82.08L100.48, 85.13L97.93, 87.93L95.13, 90.48L92.08, 92.75L88.83, 94.73L85.38, 96.4L81.75, 97.72L77.96, 98.7L74.04, 99.3L70, 99.5L65.96, 99.3L62.04, 98.7L58.25, 97.72L54.62, 96.4L51.17, 94.73L47.92, 92.75L44.87, 90.48L42.07, 87.93L39.52, 85.13L37.25, 82.08L35.27, 78.83L33.6, 75.38L32.28, 71.75L31.3, 67.96L30.7, 64.04L30.5, 60L30.7, 55.96L31.3, 52.04L32.28, 48.25L33.6, 44.62L35.27, 41.17L37.25, 37.92L39.52, 34.87L42.07, 32.07L44.87, 29.52L47.92, 27.25L51.17, 25.27L54.62, 23.6L58.25, 22.28L62.04, 21.3L65.96, 20.7L70, 20.5"/><path stroke="black" fill="none" stroke-width="1" d="M100, 60L99.85, 63.07L99.39, 66.05L98.65, 68.92L97.64, 71.68L96.38, 74.3L94.88, 76.77L93.15, 79.08L91.21, 81.21L89.08, 83.15L86.77, 84.88L84.3, 86.38L81.68, 87.64L78.92, 88.65L76.05, 89.39L73.07, 89.85L70, 90L66.93, 89.85L63.95, 89.39L61.08, 88.65L58.32, 87.64L55.7, 86.38L53.23, 84.88L50.92, 83.15L48.79, 81.21L46.85, 79.08L45.12, 76.77L43.62, 74.3L42.36, 71.68L41.35, 68.92L40.61, 66.05L40.15, 63.07L40, 60L40.15, 56.93L40.61, 53.95L41.35, 51.08L42.36, 48.32L43.62, 45.7L45.12, 43.23L46.85, 40.92L48.79, 38.79L50.92, 36.85L53.23, 35.12L55.7, 33.62L58.32, 32.36L61.08, 31.35L63.95, 30.61L66.93, 30.15L70, 30L73.07, 30.15L76.05, 30.61L78.92, 31.35L81.68, 32.36L84.3, 33.62L86.77, 35.12L89.08, 36.85L91.21, 38.79L93.15, 40.92L94.88, 43.23L96.38, 45.7L97.64, 48.32L98.65, 51.08L99.39, 53.95L99.85, 56.93L100, 60"/><path stroke="black" fill="none" stroke-width="1" d="M67.2, 70L67.2, 68.46L68.41, 68.21L68.82, 67.9L69.11, 67.42L69.27, 66.72L69.33, 65.77L69.3, 53.87L66.17, 55.8L65.3, 54.43L71.4, 49.95L72.83, 49.95L72.83, 65.91L72.8, 67.26L72.75, 68.24L73.89, 68.18L74.93, 68.15L74.93, 70L67.2, 70"/></svg>