<svg width="140" height="140" viewBox="0 0 140 140" fill="none" xmlns="http://www.w3.org/2000/svg">
<g filter="url(#filter0_d_34_74)">
<rect x="30" y="20" width="80" height="80" rx="40" fill="white"/>
<rect x="30.5" y="20.5" width="79" height="79" rx="39.5" stroke="#663722" stroke-dasharray="8 4"/>
<circle cx="70" cy="60" r="30" fill="#663722"/>
<path d="M67.2016 70V68.46C67.7056 68.4413 68.1069 68.3573 68.4056 68.208C68.7229 68.0587 68.9562 67.7973 69.1056 67.424C69.2549 67.032 69.3296 66.4813 69.3296 65.772L69.3016 53.872L66.1656 55.804L65.2976 54.432L71.4016 49.952H72.8296V65.912C72.8296 66.3787 72.8202 66.8267 72.8016 67.256C72.8016 67.6667 72.7829 67.9933 72.7456 68.236C73.0816 68.2173 73.4642 68.1987 73.8936 68.18C74.3416 68.1613 74.6869 68.152 74.9296 68.152V70H67.2016Z" fill="white"/>
</g>
<defs>
<filter id="filter0_d_34_74" x="0" y="0" width="140" height="140" filterUnits="userSpaceOnUse" color-interpolation-filters="sRGB">
<feFlood flood-opacity="0" result="BackgroundImageFix"/>
<feColorMatrix in="SourceAlpha" type="matrix" values="0 0 0 0 0 0 0 0 0 0 0 0 0 0 0 0 0 0 127 0" result="hardAlpha"/>
<feOffset dy="10"/>
<feGaussianBlur stdDeviation="15"/>
<feComposite in2="hardAlpha" operator="out"/>
<feColorMatrix type="matrix" values="0 0 0 0 0.4 0 0 0 0 0.215686 0 0 0 0 0.133333 0 0 0 0.1 0"/>
<feBlend mode="normal" in2="BackgroundImageFix" result="effect1_dropShadow_34_74"/>
<feBlend mode="normal" in="SourceGraphic" in2="effect1_dropShadow_34_74" result="shape"/>
</filter>
</defs>
</svg>
